<?xml version="1.0" encoding="utf-8"?>
<!-- Generator: Adobe Illustrator 26.3.1, SVG Export Plug-In . SVG Version: 6.00 Build 0)  -->
<svg version="1.1" id="Layer_2_00000110451797941557136200000015916258412548937862_"
	 xmlns="http://www.w3.org/2000/svg" xmlns:xlink="http://www.w3.org/1999/xlink" x="0px" y="0px" viewBox="0 0 86.4 113.4"
	 style="enable-background:new 0 0 86.4 113.4;" xml:space="preserve">
<style type="text/css">
	.st0{fill:#17161A;}
	.st1{fill:#FEFEFE;}
	.st2{fill:#FDFDFE;}
</style>
<g id="Layer_1-2">
	<g>
		<path class="st0" d="M34.7,9c0.3-1.1,0.4-2.3,0.8-3.3c1.3-3.6,4-5.7,7.7-5.6c3.8,0.1,6.3,2.5,7.4,6.1c1.3,4.1,0.6,8.4,0.5,12.6
			c-0.1,3,0,6,0,9.7c2-3,2.1-5.8,3-8.3c0.7-1.8,1.1-3.7,2.1-5.3c1.9-3.3,5.8-5,9-4.1c3.5,1,6.3,4.4,5.8,8.4
			c-1,7.8-2.6,15.6-4.1,23.4c-1,5.5-2.2,11-3.2,16.5c-0.3,1.7-0.3,3.3,1,4.9c2.7-2.2,4.1-5.5,6.4-7.9c1.9-2.1,4-3.4,6.9-3.2
			c6.1,0.4,9.5,6.5,6.5,12.4c-2.3,4.7-5,9.1-7.6,13.7c-3,5.2-5.8,10.4-8.2,16c-2.6,6.3-7.1,11.1-12.6,15c-3.6,2.5-7.6,3.8-12.1,3.6
			c-5.4-0.2-10.8,0-16.3,0c-12.2,0-20.8-8-21.7-20.3C4.8,72.5,3.8,51.9,0.9,31.5c-0.2-1.4-0.2-2.8-0.2-4.2c0-4,2.8-7.2,6.5-7.6
			c4.2-0.5,7.9,2.1,8.7,6.2c0.4,2.2,0.6,4.6,0.9,6.8c0.4-0.6,0.3,2.4,0.8,0.2c0.6-3.2,0.1-6.6,0.2-9.9c0.1-3.7-0.3-7.4,0.2-11
			c0.9-3.8,3.1-6.4,7.1-6.8c4-0.4,6.6,1.7,8.3,5.2c0.7,1,1.3,2,1.1,2.6C34.4,12.1,33.9,10.5,34.7,9L34.7,9z"/>
		<path class="st1" d="M35.8,110.5c-3.1,0-6.3,0.1-9.4,0C16.9,110.2,10,103.9,9,94.3c-0.8-7.9-1.5-15.8-1.9-23.7
			c-0.2-4.9,2.3-8.8,6.2-11.6c2.6-1.8,5.5-3,8.7-3.4c8.8-1.1,17.6-1,26.4-0.2c8.1,0.7,13.9,6.5,15.4,14.5c0.8,4.3,2,8.4,3.7,12.4
			c1.5,3.5,1.3,6.9-0.2,10.3c-2.7,6.1-6.7,11.1-12.1,14.9c-2.9,2-5.9,3.2-9.5,3C42.4,110.4,39.1,110.5,35.8,110.5L35.8,110.5z"/>
		<path class="st1" d="M48.3,30.1c0,6.5-0.1,13,0.1,19.5c0.1,2.6-0.8,3.2-3.2,3.2c-8.8,0-8.7,0.1-8.5-8.9
			c0.2-10.7,0.3-21.4,0.5-32.1c0-1.5,0-3,0.5-4.5c1.1-3,2.8-4.9,6.1-4.4c3,0.4,4.7,2.6,4.7,5.5c0.2,7.3,0.1,14.5,0.1,21.8L48.3,30.1
			L48.3,30.1z"/>
		<path class="st1" d="M61.3,58.8c-3.3-2.2-6-4.4-9.3-5.2c-2-0.5-1.2-1.9-1.3-3c-1.1-9.3,2.5-17.7,4.9-26.4c0.7-2.7,1.2-5.5,2.7-7.9
			c1.4-2.2,3.4-4,6.2-3.1c2.9,0.8,4.6,3.3,4.1,6.1C66.4,32.4,63.8,45.4,61.3,58.8L61.3,58.8z"/>
		<path class="st1" d="M20.2,32.8c0-5.5,0-11,0-16.4c0-1.1,0.1-2.3,0.3-3.4c0.4-3.2,2.2-5.2,5.4-5.4c3-0.1,4.8,1.8,5.6,4.7
			c0.3,1.1,0.4,2.3,0.4,3.4c0.1,11-0.2,21.9,0.7,32.9c0.2,2.9-0.3,4.3-3.7,4.2c-8.2-0.2-8.2,0-8.3-8.5c0-3.8,0-7.6,0-11.5L20.2,32.8
			L20.2,32.8z"/>
		<path class="st1" d="M6.8,61.9C6,55.3,5.3,49.4,4.7,43.6c-0.6-5-1.2-10.1-1.5-15.2c-0.2-3.6,2-6.2,5-6.3c2.8-0.1,5,2.1,5.5,5.6
			c1,7.5,1.9,15.1,3,22.7c0.4,2.6,0.1,4.5-2.8,5.6C11.1,56.9,9.2,59.4,6.8,61.9L6.8,61.9z"/>
		<path class="st2" d="M70.9,84.6c-2.1-5.4-3.9-10-4.7-14.9C66,68.3,66,67.1,66.8,66c2.1-2.9,4-5.8,6.3-8.5c2.1-2.4,4.8-3.4,7.7-1.3
			c2.7,2,3.2,4.8,1.6,7.7C78.7,70.7,74.9,77.4,70.9,84.6L70.9,84.6z"/>
	</g>
</g>
</svg>
