<?xml version="1.0" encoding="utf-8"?>
<!-- Generator: Adobe Illustrator 26.3.1, SVG Export Plug-In . SVG Version: 6.00 Build 0)  -->
<svg version="1.1" id="Layer_2_00000021841411843159625190000008335936011632765573_"
	 xmlns="http://www.w3.org/2000/svg" xmlns:xlink="http://www.w3.org/1999/xlink" x="0px" y="0px" viewBox="0 0 107.4 113.4"
	 style="enable-background:new 0 0 107.4 113.4;" xml:space="preserve">
<style type="text/css">
	.st0{fill:#181419;}
	.st1{fill:#FEFEFE;}
</style>
<g id="Layer_1-2">
	<g>
		<path class="st0" d="M48.7,8.3c2.2-7.7,3-8.4,9.2-8.3c1.7,0,3.4,0,5,0c3.5,0,5.8,1.9,6.4,6.3c0.4,3.1,1.4,3.5,3.8,3
			c3-0.7,6.2-0.4,9.4-0.2c3.4,0.2,5.4,3.6,5.5,8.6c0,10.3,0.1,20.7,0,31c0,3.2,0.6,4.9,3.2,5.9c4.7,1.8,5.7,4.5,4.8,10.7
			c-0.4,2.5-0.9,5-1.2,7.6c-0.6,4.8-2.1,8.4-6.4,8.8c-2.7,0.3-1.9,3-1.9,4.9c0.3,10.1-2.7,18.1-9.6,23.4c-2.7,2.1-5.6,3.3-8.9,3.3
			c-12.9,0-25.7,0-38.6,0.1c-2.9,0-5.1-1.5-6.8-4.2c-4.8-7.5-6.2-16.6-7.7-25.7c-1.3-8-1-16.5-2.4-24.4c-2.4-13.3-0.8-26.6-1.3-39.9
			c-0.2-6,1.5-8.1,6.3-8.5c2-0.2,4-0.3,6.1-0.1c3.1,0.4,5.7-0.1,8.9-2.6C37.2,4.3,43.2,5.6,48.7,8.3L48.7,8.3z"/>
		<path class="st1" d="M48.9,110.4c-5.9,0-11.8-0.3-17.7,0.1c-4.1,0.3-6.5-2-8.4-6.1c-3.9-8.4-5.2-17.8-6.3-27.2
			c-0.6-4.6-0.8-9.4-1.3-14c-0.3-3.3,0.2-5.4,3.3-4.8c1.5,0.3,3.1,0.1,4.7,0.1c3.3-0.1,6.9-1.6,7.5,5.2c0.2,2.3,2.4,3.7,4.5,3.7
			c3.5,0,7-0.1,10.4-0.4c0.8-0.1,1.7-0.8,2.2,0.4c2.9,6.6,8.4,5.8,12.9,7.2c7,2.2,14,3.8,21.1,5.6c1.1,0.3,2.2,0.4,2.3,2.2
			c1.1,13.7-3.2,24.7-14,27.6c-4.6,1.2-9.6,0.3-14.4,0.3C53.4,110.5,51.1,110.4,48.9,110.4L48.9,110.4z"/>
		<path class="st1" d="M93.9,63.5c-0.6,4-1,8.1-2,12c-1,4-3.9,3.5-6.4,2.9C77,76.2,68.6,74,60.2,71.7c-1.5-0.4-3-0.9-4.5-1.4
			c-5.4-1.5-6.2-3-5.1-9.6c0.4-2.4,0.9-4.7,1.3-7.1c0.8-4.7,2.4-6,6.2-5.1c10.3,2.7,20.6,5.4,30.9,8.1
			C91.7,57.5,94.6,58.4,93.9,63.5L93.9,63.5z"/>
		<path class="st1" d="M47.6,36.8c0,7.3,0,14.6,0,21.9c0,4.2-1.5,6.2-4.8,6c-2-0.1-4.1-0.1-6.1,0c-3.4,0.2-4.9-2.2-5-6.1
			c-0.1-14.4-0.1-28.9,0-43.3c0-3.7,1.5-6,4.7-6c11.5,0,11.4-1.4,11.2,12.9C47.6,27.1,47.6,31.9,47.6,36.8L47.6,36.8z"/>
		<path class="st1" d="M52,46.8c-0.8-2.8-0.4-5.4-0.4-8c0-10,0-20.1,0-30.1c0-4,1.4-5.9,4.6-5.7c2.2,0.1,4.3,0.1,6.5,0
			c3.4-0.2,4.8,2.3,4.9,6.2c0.1,11.9,0,23.7,0.1,35.6c0,2.5-0.6,3.3-2.5,2.7c-1.4-0.4-2.8-0.6-4.2-1C57.8,45.5,54.9,44.8,52,46.8
			L52,46.8z"/>
		<path class="st1" d="M13.5,34.3c0-5.3,0-10.6,0-16c0-3.2,1.1-4.8,3.7-4.8c2.8,0,5.5,0.1,8.3,0c2.7-0.1,4,1.4,3.9,4.9
			c-0.1,10.8-0.1,21.6,0,32.4c0,3.3-1.1,4.8-3.7,4.8c-2.6,0-5.3-0.1-7.9,0c-3,0.1-4.4-1.4-4.3-5.4C13.6,45,13.5,39.7,13.5,34.3z"/>
		<path class="st1" d="M85.7,34c0,5.3-0.1,10.6,0,15.9c0,2.3-0.2,3.3-2.4,2.5c-3.7-1.3-7.4-2.3-11.2-3c-1.8-0.4-2.4-1.1-2.4-3.4
			c0.1-9.4,0-18.8,0-28.2c0-3.9,1.4-5.9,4.6-5.8c2.3,0,4.6,0,6.8,0c3,0,4.4,2,4.4,5.7C85.7,23.1,85.7,28.5,85.7,34L85.7,34z"/>
	</g>
</g>
</svg>
