<?xml version="1.0" encoding="utf-8"?>
<!-- Generator: Adobe Illustrator 26.3.1, SVG Export Plug-In . SVG Version: 6.00 Build 0)  -->
<svg version="1.1" id="Layer_2_00000160891166381228049320000018358795634583637142_"
	 xmlns="http://www.w3.org/2000/svg" xmlns:xlink="http://www.w3.org/1999/xlink" x="0px" y="0px" viewBox="0 0 77.3 113.4"
	 style="enable-background:new 0 0 77.3 113.4;" xml:space="preserve">
<style type="text/css">
	.st0{fill:#16141A;}
	.st1{fill:#FEFEFE;}
	.st2{fill:#FDFDFD;}
</style>
<g id="Layer_1-2">
	<g>
		<path class="st0" d="M48.5,50.1c1.8-6.6,3.4-12.9,5.1-19.2c2.1-7.7,4.6-15.3,8.6-22.2C63.9,5.7,65.7,2.3,70,3
			c4,0.6,6.7,4.1,7.3,8.9c0.3,2.9-0.3,5.7-1,8.5c-4.3,16.2-8.6,32.4-13,48.5c-0.9,3.3-0.9,5.5,2.3,8c6.6,5.1,4.8,14.9-3.1,17.8
			c-2.6,0.9-3.5,2.1-3.9,4.8c-1,8.1-3.4,10.5-11.4,12.3c-10.2,2.3-20.6,1.4-30.8,0.1c-6.1-0.7-9.3-5.4-11.3-10.9
			c-2-5.6-1.9-11.3-1.7-17.1c0.1-2.4-0.1-4.6-1.7-6.6c-1.1-1.4-1.6-3.2-1.6-5c0-4.4-0.1-8.8,0.1-13.2c0.3-7,6.3-10.8,12.8-8.1
			c2.2,0.9,3.2,0.8,4.4-1.4c2-3.9,5.1-6.1,9.8-4.4c2.8,1,2.5-1,2.5-2.7c-0.1-9.9,0-19.8,1.8-29.6c0.6-3.4,1.3-6.8,3.2-9.7
			C36,1.1,38.1-0.1,40.8,0c2.6,0.2,3.8,2.1,4.6,4.2c2.9,7.2,2.8,14.8,3.1,22.3C48.7,34.2,48.5,41.9,48.5,50.1L48.5,50.1z"/>
		<path class="st1" d="M34.2,74c-0.3-0.9-0.4-1-0.4-1.1c0.2-17.8-3.1-35.6-0.6-53.4c0.6-4.3,1.2-8.7,2.8-12.8c0.7-2,2-3.9,4.3-4
			c2.4,0,2.8,2.4,3.4,4.1c1.2,3.7,1.8,7.5,1.9,11.3c0.1,10.2,0.3,20.3-0.2,30.5c-0.1,2.5-0.6,6.2,2.5,6.6c2.7,0.3,3.2-3.2,3.8-5.5
			c3-11.6,5.6-23.4,10.5-34.4c1-2.2,2.1-4.5,3.4-6.5c1.1-1.7,2.2-3.8,4.8-2.8c2.5,0.9,4.1,2.7,4.2,5.5c0.1,3.3-0.1,6.5-1,9.8
			c-4.4,16.5-8.9,32.9-13.1,49.5c-0.7,2.8-2.1,3.4-4.6,2.9c-2.9-0.6-5.9-0.9-8.9-1.7C42.3,70.7,38.1,70.6,34.2,74L34.2,74z"/>
		<path class="st1" d="M32.4,110.7c-4.8-0.3-9.6-0.4-14.4-0.9c-4.5-0.4-7.5-3-9.5-7c-3-6.3-2.9-13-2.7-19.7c0-0.1,0-0.3,0-0.4
			c0.1-1,1-1.6,1.7-1.2c3.5,2.1,6.6-4.2,9.7-0.5c3.9,4.6,5.7,5.3,11.6,2.8c1.1-0.5,1.8-0.6,2.2,0.6c2,7.3,8.2,8,14.2,9
			c2.8,0.5,5.6,1.3,8.5,1.5c2.5,0.2,2.5,1.5,2.3,3.3c-0.7,7.6-3.4,10.5-11.7,11.6C40.4,110.3,36.5,111,32.4,110.7z"/>
		<path class="st1" d="M55.6,92.6c-4-0.7-10.1-1.6-16-3.1c-4.8-1.2-6.9-5.2-5.7-9.8c1-4,5-6.6,9.5-5.8c5.4,0.9,10.7,1.9,16.1,3.1
			c4.7,1,7.9,4.9,7.4,8.8C66.2,90.2,62.8,92.7,55.6,92.6L55.6,92.6z"/>
		<path class="st1" d="M30.6,65.1c0,3.6,0.2,7.2-0.1,10.7c-0.3,3.5-1.9,6.4-5.8,6.8c-2.8,0.3-6.1-2.7-6.3-6.5
			c-0.3-7.4-0.3-14.8,0-22.2c0.2-3.8,3.5-6.7,6.3-6.5c2.9,0.2,5.7,3.5,5.9,7.4C30.8,58.2,30.7,61.7,30.6,65.1L30.6,65.1z"/>
		<path class="st2" d="M15.6,66c0,2.3,0.1,4.7,0,7c-0.3,3.3-3.6,6.5-6.6,6.1c-3.4-0.4-5.9-2.4-6.1-6.1c-0.2-4.7-0.2-9.3,0-14
			c0.1-3.8,2.7-6.2,6.3-6.2c3.6,0,6.3,2.7,6.4,6.6C15.7,61.6,15.6,63.8,15.6,66L15.6,66L15.6,66z"/>
	</g>
</g>
</svg>
